<mxfile host="app.diagrams.net" agent="Mozilla/5.0 (X11; Ubuntu; Linux x86_64; rv:134.0) Gecko/20100101 Firefox/134.0" version="26.0.6">
  <diagram name="Page-1" id="laF29QbqxDF_-AjuciQj">
    <mxGraphModel dx="989" dy="528" grid="1" gridSize="10" guides="1" tooltips="1" connect="1" arrows="1" fold="1" page="1" pageScale="1" pageWidth="850" pageHeight="1100" math="0" shadow="0">
      <root>
        <mxCell id="0" />
        <mxCell id="1" parent="0" />
        <mxCell id="jdVW5riGTcjkd9gk8ziV-1" value="" style="shape=image;verticalLabelPosition=bottom;labelBackgroundColor=default;verticalAlign=top;aspect=fixed;imageAspect=0;image=data:image/png,iVBORw0KGgoAAAANSUhEUgAAAoAAAAHgCAYAAAA10dzkAAAAOXRFWHRTb2Z0d2FyZQBNYXRwbG90bGliIHZlcnNpb24zLjkuMSwgaHR0cHM6Ly9tYXRwbG90bGliLm9yZy/TGe4hAAAACXBIWXMAAA9hAAAPYQGoP6dpAABV+klEQVR4nO3deZzNdf//8eeZGTNM1pKxDZOyJDvRWJJMXOkiKc11UeZC+iYig5BKkrUSVwsRaVGUJS2yNBkRZV8rS9YwM5YYxjJdcz6/P/zmmGEwzMx5f87nPO6329yu5jNneX2uOeY8z+v1eX8+LsuyLAEAAMBvBJguAAAAAN5FAAQAAPAzBEAAAAA/QwAEAADwMwRAAAAAP0MABAAA8DMEQAAAAD9DAAQAAPAzBEAAAAA/QwAEAADwMwRAAAAAP0MABAAA8DMEQAAAAD9DAAQAAPAzBEAAAAA/QwAEAADwMwRAAAAAP0MABAAA8DMEQAAAAD9DAAQAAPAzBEAAAAA/QwAEAADwMwRAAAAAP0MABAAA8DMEQAAAAD9DAAQAAPAzBEAAAAA/QwAEAADwMwRAAAAAP0MABAAA8DMEQAAAAD9DAAQAAPAzBEAAAAA/QwAEAADwMwRAAAAAP0MABAAA8DMEQAAAAD9DAAQAAPAzBEAAAAA/QwAEAADwMwRAAAAAP0MABAAA8DMEQAAAAD9DAAQAAPAzBEAAAAA/QwAEAADwMwRAAAAAP0MABAAA8DMEQAAAAD9DAAQAAPAzBEAAAAA/QwAEAADwMwRAAAAAP0MABAAA8DMEQAAAAD9DAAQAAPAzQaYL8GVut1sHDx5UoUKF5HK5TJcDAACywbIsnTx5UqVLl1ZAgH/2wgiAOXDw4EGFh4ebLgMAAFyH/fv3q2zZsqbLMIIAmAOFChWSdP4FVLhwYcPVAACA7EhOTlZ4eLjnfdwfEQBzIH3sW7hwYQIgAAA+xp8P3/LPwTcAAIAfIwACAAD4GQIgAACAnyEAAgAA+BkCIAAAgJ8hAAIAAPgZAiAAAICfIQACAAD4GQIgAACAnyEAAgAA+BkCIAAAgJ8hAAIAAPgZAiAAwGvOnj2r559/XitXrjRdCuDXgkwXAADwH4sXL9bIkSO1Zs0aLVq0yHQ5gN+iAwgA8JqTJ09Kkk6dOmW4EsC/EQABAF7z999/S5L+97//Ga4E8G8EQACA16QHPwIgYBYBEADgNekdwPT/BWAGARAA4DWMgAF7IAACALwmPfjRAQTMIgACALyGDiBgDwRAAIDXsAgEsAcCIADAa1gEAtgDARAA4DWMgAF7IAACALyGRSCAPRAAAQBeQwcQsAcCIADAazgGELAHAiDgQHFxcZo9e7bpMoBLZFwFbFmW4WoA/xVkugAAua99+/Y6fvy49u7dq/DwcNPlAB4ZO39ut1uBgYEGqwH8Fx1AwIGOHz8uy7K0fv1606UAmWQMgIyBAXMIgIDDpKWleUZrmzZtMlwNkFnGxR8sBAHMIQACDpOxq0IAhN3QAQTsgQAIOEzGrgoBEHZDBxCwBwIg4DAZuyo7duzQ6dOnDVYDZJbx9UkABMwhAAIOc/Eqy19//dVgNUBmjIABeyAAAg5zcVeFMTDshBEwYA8EQMBhLu6qEABhJ3QAAXsgAAIOQwcQdsYxgIA9EAABh7m4q7Jx40YuuQXbYAQM2AMBEHCY9ABYuHBhBQYG6tixYzp48KDhqoDzGAED9kAABBwmvatSqFAhVapUSRJjYNgHI2DAHgiAgMOkv8EGBQWpZs2akgiAsI+MoY8OIGAOARBwmPQ32Hz58qlGjRqSCICwDzqAgD0QAAGHydgBJADCblgEAtgDARBwmPQAmLED+Pvvv+vcuXMmywIksQgEsAsCIOAwGUfAZcuWVdGiRfW///1Pv//+u+HKAEbAgF0QAAGHyTgCdrlcjIFhKywCAeyBAAg4TMYRsCQCIGyFDiBgDwRAwGHS31SDgoIkXQiAGzduNFYTkI4ACNgDARBwGDqAsDNGwIA9EAABh8m4CESSqlWrJpfLpcTERCUmJposDX7OsiylpaV5vqcDCJhDAAQcJuMiEEm64YYbdNttt0mSNm/ebKwu4OLARwcQMIcACDjMxSNgiTEw7OHiwEcHEDCHAAg4zMUjYIkACHsgAAL2QQAEHObiEbBEAIQ9MAIG7IMACDjMlTqAW7dupesCY+gAAvZBAAQcJqsOYEREhAoWLKjU1FRt377dVGnwcxcHQDqAgDkEQMBhsloEEhAQoOrVq0vihNAw5+KOHx1AwBwCIOAwWY2AJalmzZqSOA4Q5tABBOyDAAg4TFYjYImFIDCPYwAB+3BUAHznnXcUERGh/Pnzq0GDBlq1atUVbz9u3DhVrlxZBQoUUHh4uPr06aOzZ896qVogb1yuA5geADds2ODtkgBJjIABO3FMAJw5c6ZiY2M1ZMgQrVu3TjVr1lTLli2VlJSU5e0//fRTDRw4UEOGDNFvv/2mKVOmaObMmXr++ee9XDmQuy7XAaxZs6ZcLpcOHjzIJeFgBCNgwD4cEwDHjh2rbt26qXPnzqpataomTpyo0NBQTZ06Ncvbr1ixQo0aNVKHDh0UERGhFi1a6N///vdVu4aA3WW1CESSChYsqMqVK0uS1q5d6/W6ADqAgH04IgCmpqZq7dq1ioqK8mwLCAhQVFSUVq5cmeV9GjZsqLVr13oC365duzR//ny1atXqss9z7tw5JScnZ/oC7OZyI2BJqlevniQCIMygAwjYhyMC4JEjR5SWlqawsLBM28PCwpSQkJDlfTp06KBXXnlFjRs3Vr58+XTrrbfqnnvuueIIeOTIkSpSpIjnKzw8PFf3A8gNlxsBS1LdunUlSWvWrPFqTYDEIhDAThwRAK9HfHy8RowYoXfffVfr1q3TnDlz9O2332rYsGGXvc+gQYN04sQJz9f+/fu9WDGQPZcbAUsXAiAdQJjACBiwj0tbBD6oePHiCgwMvOTA9sTERJUsWTLL+7z44ot6/PHH9cQTT0iSqlevrpSUFD355JMaPHiwAgIuzcYhISEKCQnJ/R0AclH6m2pWHcDatWvL5XLpwIEDSkxMvKRrDuQlRsCAfTiiAxgcHKy6desqLi7Os83tdisuLk6RkZFZ3uf06dOXhLzAwEBJkmVZeVcskMeu1AEsWLCgqlSpIokuILyPETBgH44IgJIUGxuryZMn68MPP9Rvv/2m7t27KyUlRZ07d5YkderUSYMGDfLcvnXr1powYYJmzJih3bt3a/HixXrxxRfVunVrTxAEfNGVFoFIHAcIcy4OfHQAAXMcMQKWpOjoaB0+fFgvvfSSEhISVKtWLS1YsMAz4tq3b1+mjt8LL7wgl8ulF154QQcOHNDNN9+s1q1ba/jw4aZ2AcgVV1oEIp0PgJ988gkdQHgdHUDAPhwTACWpZ8+e6tmzZ5Y/i4+Pz/R9UFCQhgwZoiFDhnihMsB7rjQCllgIAnMIgIB9OGYEDOC8q42AMy4EudxpkoC8wAgYsA8CIOAwVxsBsxAEptABBOyDAAg4zNU6gBJjYJiR/tosUKCAJDqAgEkEQMBhrtYBlAiAMCP9tZkeAOkAAuYQAAGHudoiEIlrAsMMAiBgHwRAwGGyMwKuVasWC0HgdYyAAfsgAAIOk50RMAtBYAIdQMA+CICAw2RnBCxxHCC87+IASAcQMIcACDhMelflSh1AiQAI77t4BEwHEDCHAAg4THY7gOkLQbgmMLyFETBgHwRAwGGyswhEurAQ5ODBgywEgVcwAgbsgwAIOEx2FoFILASB9zECBuyDAAg4THZHwBLHAcK76AAC9kEABBwmu4tAJI4DhHfRAQTsgwAIOIhlWUpLS5NEBxD2wyIQwD4IgICDZHxDzU4AZCEIvOniAJjxAwsA7yIAAg6S8Ziq7IyAWQgCb7p4BJxxGwDvIgACDpIxAGanAyhxHCC85+IOYMZtALyLAAg4yLWOgKULxwGuXr06T2oC0mUVAOkAAmYQAAEHSX+DdblcCgjI3j/vu+66S5L0yy+/yLKsPKsNyGoETAcQMIMACDjItZwDMF3t2rUVEhKiI0eOaOfOnXlVGuB5fQYHB3s+oNABBMwgAAIOci3nAEwXHBysOnXqSJJWrlyZJ3UBUuar1KR/SCEAAmbYJgCeO3fOdAmAz7ueDqAkRUZGSiIAIm9lvE51+ocURsCAGcYC4HfffaeYmBhVqFBB+fLlU2hoqAoXLqymTZtq+PDhOnjwoKnSAJ+V8Q32WhAA4Q0ZP6DQAQTM8noAnDt3ripVqqQuXbooKChIAwYM0Jw5c7Rw4UK9//77atq0qb7//ntVqFBBTz31lA4fPuztEgGflXHEdi3SA+DmzZt18uTJXK8LkDIfokAHEDDr2t4lcsGYMWP05ptv6v77789yleKjjz4qSTpw4IDeeustffLJJ+rTp4+3ywR80vWOgMuUKaPw8HDt379fq1ev1r333psX5cHPZXx9pgdAOoCAGV4PgNkdMZUpU0ajRo3K42oAZ7meRSDpIiMjtX//fq1cuZIAiDzBCBiwDyPHAPbr10+///67iacGHO16O4ASxwEi7zECBuzDSACcN2+e7rjjDjVs2FBTp05VSkqKiTIAx7neRSDShQD4888/c0Jo5Ak6gIB9GAmAO3bs0JIlS1SpUiX17t1bJUuWVJcuXbRixQoT5QCOcb2LQKQLJ4Q+evSoduzYkdulAVkeA0gHEDDD2Glg7r77bk2bNk0JCQkaP368duzYocaNG+v222/X66+/rsTERFOlAT4rJyPg4OBgz3WBGQMjL2Q1AqYDCJhh/ETQN9xwg7p06aJly5Zp+/btateunUaOHKly5cqZLg3wOTkZAUscB4i8xQgYsA/jATBdSkqKli1bpqVLl+qvv/5ShQoVTJcE+JycjIAlAiDyVsbXJyNgwCzjAXD58uXq0qWLSpUqpV69eqlSpUpatmyZfvvtN9OlAT4nJyNg6UIA3LJlCyeERq7L2KGmAwiYZSQAHjp0SKNGjVKVKlV099136/fff9fYsWN16NAhTZ06VY0aNTJRFuDzcnIeQEkqXbq0ypUrJ7fbrVWrVuVmafBzlmVxLWDARrx+ImhJCg8P10033aTHH39cXbt21e23326iDMBxctoBlM53Afft26eVK1eqefPmuVUa/FxaWprnv1kEAphnJAB+/vnnatOmzXV3KQBkLaeLQKTzAXDmzJn6+eefc6ssIFOnjxEwYJ6RBNauXbtM3yclJSkpKUlutzvT9ho1anizLMDn5XQRiCTdddddki6cENrlcuVKbfBvFwdARsCAWUZbcGvXrlVMTIx+++03z5UHXC6X500n48gAwNXlxgj44hNCV6pUKbfKgx/L2OkLCgqiAwgYZjQAdunSRZUqVdKUKVMUFhZGpwHIoZwuApEunBB6xYoVWrlyJQEQuSJjpy8wMJAOIGCY0QC4a9cuzZ49W7fddpvJMgDHyI0OoHT+OMD0ABgTE5MbpcHPZXxtulwuFoEAhhk9D2Dz5s21ceNGkyUAjpIbi0AkTgiN3Hdxd5oRMGCW0Q7g+++/r5iYGG3ZskXVqlW75E2rTZs2hioDfFNuLAKRLj0hdKFChXJcG/zbxd1pRsCAWUYD4MqVK/XTTz/pu+++u+RnLAIBrl1ujYDTTwi9b98+rVq1ivMBIsfoAAL2YnQE/Mwzz+ixxx7ToUOH5Ha7M30R/oBrlxuLQNI1bNhQkvTTTz/l+LEAOoCAvRgNgEePHlWfPn0UFhZmsgzAMXKrAyhJTZo0kSQtXbo0x48FXPzapAMImGU0ALZr105LliwxWQLgKLkZAJs2bSrp/KEaqampOX48+LeLu9OsAgbMMnoMYKVKlTRo0CAtX75c1atXv+RNq1evXoYqA3xTbo6Aq1atquLFi+vIkSNavXq1GjVqlOPHhP9iBAzYi/FVwAULFtTSpUsvGTO5XC4CIHCNcrMD6HK51LRpU82ePVvx8fEEQOQII2DAXowGwN27d5t8esBxcus8gOnSA+DSpUs1ePDgXHlM+KfLjYDpAAJmGD0GEEDuyq3zAKa75557JEkrVqzgjRo5QgcQsBevB8BRo0bpzJkz2brtL7/8om+//TaPKwKcIzdHwJJ0xx136MYbb1RKSorWrl2bK48J/8QxgIC9eD0A/vrrrypXrpyefvppfffddzp8+LDnZ//73/+0adMmvfvuu2rYsKGio6O5AgFwDXJzEYgkBQQE6O6775YkxcfH58pjwj+xChiwF68HwI8++kjff/+9/v77b3Xo0EElS5ZUcHCwChUqpJCQENWuXVtTp05Vp06d9Pvvv3vefABcXW53AKULp4PhfIDICUbAgL0YWQRSs2ZNTZ48We+99542bdqkvXv36syZMypevLhq1aql4sWLmygL8Hm5vQhEunAc4PLly/W///0v17qL8C8sAgHsxehf8oCAANWqVUu1atUyWQbgGLm9CESSqlevrqJFi+r48eNav3697rzzzlx7bPgPOoCAvbAKGHCQvBgBBwYGei4Lx3GAuF4sAgHshQAIOEhuLwJJx3GAyCkWgQD2QgAEHCQvOoDSheMAly1bprS0tFx9bPgHRsCAvRAAAQfJqwBYq1YtFS5cWMnJydq4cWOuPjb8AyNgwF5sEQB37typhQsXek4QbVnWdT3OO++8o4iICOXPn18NGjTQqlWrrnj748ePq0ePHipVqpRCQkJUqVIlzZ8//7qeG7CDvBoBBwYGqnHjxpI4DhDX5+LXJh1AwCyjAfDo0aOKiopSpUqV1KpVKx06dEiS1LVrV/Xt2/eaHmvmzJmKjY3VkCFDtG7dOtWsWVMtW7ZUUlJSlrdPTU3Vfffdpz179mjWrFnatm2bJk+erDJlyuR4vwBT8qoDKF0YA3McIK4HHUDAXowGwD59+igoKEj79u1TaGioZ3t0dLQWLFhwTY81duxYdevWTZ07d1bVqlU1ceJEhYaGaurUqVnefurUqTp27Ji+/PJLNWrUSBEREWratKlq1qyZo30CTMqrDqB0YSHIsmXL5Ha7c/3x4WyXC4B0AAEzjAbARYsWafTo0Spbtmym7RUrVtTevXuz/Tipqalau3atoqKiPNsCAgIUFRWllStXZnmfr776SpGRkerRo4fCwsJUrVo1jRgx4ooHuJ87d07JycmZvgA7ycsOYJ06dVSwYEH99ddf2rx5c64/PpyNETBgL0YDYEpKSqbOX7pjx44pJCQk249z5MgRpaWlKSwsLNP2sLAwJSQkZHmfXbt2adasWUpLS9P8+fP14osv6o033tCrr7562ecZOXKkihQp4vkKDw/Pdo2AN+RlAAwKClKjRo0kMQbGtWMEDNiL0QDYpEkTffTRR57vXS6X3G63xowZo2bNmuXpc7vdbpUoUUKTJk1S3bp1FR0drcGDB2vixImXvc+gQYN04sQJz9f+/fvztEbgWuXlCFi6cBwgC0FwregAAvZi9FJwY8aMUfPmzbVmzRqlpqbqueee09atW3Xs2DH99NNP2X6c4sWLKzAwUImJiZm2JyYmqmTJklnep1SpUsqXL58CAwM9226//XYlJCQoNTVVwcHBl9wnJCTkmjqTgLflZQdQunAc4I8//ii3262AAFucSAA+gA4gYC9G/3pXq1ZN27dvV+PGjfXggw8qJSVF7dq10/r163Xrrbdm+3GCg4NVt25dxcXFeba53W7FxcUpMjIyy/s0atRIO3fuzHQw+/bt21WqVKkswx/gC9K7KXkVAOvVq6fQ0FAdPXpUW7duzZPngDOxCASwF6MdQEkqUqSIBg8enOPHiY2NVUxMjOrVq6f69etr3LhxSklJUefOnSVJnTp1UpkyZTRy5EhJUvfu3fX222+rd+/eeuaZZ7Rjxw6NGDFCvXr1ynEtgCnpb7J5NQLOly+fmjRpooULF2rx4sWqXr16njwPnIcRMGAvRgPgpk2bstzucrmUP39+lStXLtsj1+joaB0+fFgvvfSSEhISVKtWLS1YsMCzMGTfvn2ZxlXh4eFauHCh+vTpoxo1aqhMmTLq3bu3BgwYkPMdAwywLCvPR8CS1LJlSy1cuFCLFi1SbGxsnj0PnIURMGAvRgNgrVq15HK5JF24+kf699L5PxTR0dF67733lD9//qs+Xs+ePdWzZ88sf5bVQeuRkZH6+eefr6NywH4yHs6QVx1ASWrRooWk8yuBz549m61/mwDXAgbsxegxgHPnzlXFihU1adIkbdy4URs3btSkSZNUuXJlffrpp5oyZYp++OEHvfDCCybLBHxCxk5KXnYAq1atqjJlyujs2bNavnx5nj0PnOXiETAdQMAsox3A4cOHa/z48WrZsqVnW/Xq1VW2bFm9+OKLWrVqlW644Qb17dtXr7/+usFKAfvL2EnJywDocrnUokULffDBB1q4cGGmE7ADl8MiEMBejHYAN2/erPLly1+yvXz58p4rDdSqVctzjWAAl5exk5KXI2Dpwhh40aJFefo8cI7LjYAty+LSgoABRgNglSpVNGrUKKWmpnq2/f333xo1apSqVKkiSTpw4MAlV/gAcClvBsCoqCi5XC5t2rSJD2jIlsuNgCXGwIAJRkfA77zzjtq0aaOyZcuqRo0aks53BdPS0vTNN99IOn/JtqefftpkmYBPSH+DDQwMzLSYKi8UL15cdevW1Zo1a7R48WJ16tQpT58Pvu9yHUDp/GuXk+wD3mU0ADZs2FC7d+/W9OnTtX37dklS+/bt1aFDBxUqVEiS9Pjjj5ssEfAZ3jgFTEYtWrTQmjVrtGjRIgIgrurik5TTAQTMMn4i6EKFCumpp54yXQbg80wEwBEjRmjx4sVcFg5XdfFJyjMGQBaCAN5n/C/2xx9/rMaNG6t06dLau3evJOnNN9/UvHnzDFcG+JaLj7HKa5GRkSpYsKCSkpK0ceNGrzwnfNfFH1ACAgI8HxoIgID3GQ2AEyZMUGxsrO6//3799ddfSktLkyQVK1ZM48aNM1ka4HO83QEMDg5Ws2bNJLEaGFeX1QcUzgUImGM0AL711luaPHmyBg8enOmPQr169TyngQGQPd7uAEqcDgbZl9UHFK4GAphjNADu3r1btWvXvmR7SEiIUlJSDFQE+C5vdwClCwFw+fLl/JvFFWX1+qQDCJhjNADecsst2rBhwyXbFyxYoNtvv937BQE+zEQArFixoiIiIpSamqqlS5d67Xnhe640AqYDCHif0QAYGxurHj16aObMmbIsS6tWrdLw4cM1aNAgPffccyZLA3yOiRFw+mXhJMbAuLIrjYDpAALeZ/Q0ME888YQKFCigF154QadPn1aHDh1UunRpjR8/Xv/6179Mlgb4HBMdQOn8GHjSpEkEQFzRlUbAdAAB7zN+HsCOHTuqY8eOOn36tE6dOqUSJUqYLgnwSRefaNdb7r33XgUEBOi3337T/v37FR4e7tXnh2/IqkPNIhDAHKMj4HvvvVfHjx+XJIWGhnrCX3Jysu69916DlQG+5+IT7XpLsWLF1KBBA0mMgXF5LAIB7MVoAIyPj1dqauol28+ePatly5YZqAjwXaZGwBKng8HVZdWhZgQMmGNkBLxp0ybPf//6669KSEjwfJ+WlqYFCxaoTJkyJkoDfJaJRSDpWrRooaFDh2rx4sVKS0tTYGCg12uAvWXVoWYRCGCOkQBYq1YtuVwuuVyuLEe9BQoU0FtvvWWgMsB3mewA1q9fX8WKFdNff/2lFStWqEmTJl6vAfZlWRaLQACbMRIAd+/eLcuyVKFCBa1atUo333yz52fBwcEqUaIEHQTgGpkMgEFBQXrggQf0ySef6KuvviIAIhO32+35bxaBAPZg5BjA8uXLKyIiQm63W/Xq1VP58uU9X6VKlSL8AdfB5AhYktq0aSNJ+uqrr4w8P+wr44iXRSCAPRg/DYx0/jjAffv2XbIgJP0NBcDVmewASlLLli2VL18+bd++Xdu2bVPlypWN1AH7uVoApAMIeJ/RALhr1y499NBD2rx5s1wulyzLknT+6gLS+QUhALLHdAewcOHCatasmRYtWqSvvvpK/fv3N1IH7CdjwGMRCGAPRk8D07t3b91yyy1KSkpSaGiotm7dqh9//FH16tVTfHy8ydIAn2O6AyhJDz74oCTGwMgsY8DjWsCAPRgNgCtXrtQrr7yi4sWLKyAgQAEBAWrcuLFGjhypXr16mSwN8Dl2CICtW7eWJK1YsUKHDx82VgfsJeMpYNInPBKLQACTjAbAtLQ0FSpUSJJUvHhxHTx4UNL5RSLbtm0zWRrgc0yPgCUpPDxctWvXltvt1rfffmusDtjL5V6bLAIBzDEaAKtVq6aNGzdKkho0aKAxY8bop59+0iuvvKIKFSqYLA3wOXboAEqsBsalLvfapAMImGM0AL7wwgue80O98sor2r17t5o0aaL58+frv//9r8nSAJ9jhw6gdCEALly4UGfPnjVaC+whq8vASXQAAZOMvlO0bNnS89+33Xabfv/9dx07dkzFihXLdJwIgKuzSwewdu3aKlOmjA4cOKAffvhBrVq1MloPzMvqMnAZv6cDCHif0Q5gVm688UbCH3Ad7BIAXS4XY2BkwggYsB+vdwDbtWuX7dvOmTMnDysBnMUuI2Dp/Bh4woQJ+vrrr/Xuu+8qIMB2nzXhRSwCAezH6+8URYoU8fZTAn7BLh1ASWrWrJkKFiyogwcPat26dapXr57pkmAQHUDAfrweAD/44ANvPyXgF+wUAENCQtSyZUvNnj1bX331FQHQz13utUkHEDDHFnOZw4cPa/ny5Vq+fDknjwWuk51GwNKF1cDz5s0zXAlMu9oImA4g4H1GA2BKSoq6dOmiUqVK6e6779bdd9+t0qVLq2vXrjp9+rTJ0gCfY6cOoCQ98MADCggI0KZNm7Rnzx7T5cAgRsCA/RgNgLGxsVq6dKm+/vprHT9+XMePH9e8efO0dOlS9e3b12RpgM+xWwfwpptuUuPGjSVJX3/9teFqYBLnAQTsx2gAnD17tqZMmaL7779fhQsXVuHChdWqVStNnjxZs2bNMlka4HPs1gGULoyBv/zyS7OFwKjLnQeQDiBgjtEAePr0aYWFhV2yvUSJEoyAgWtkxwDYtm1bSVJ8fLySkpLMFgNjWAQC2I/RABgZGakhQ4ZkulzUmTNnNHToUEVGRhqsDPA9dhsBS9Ktt96qunXryu12c15PP3a1ETAdQMD7jAbA8ePH66efflLZsmXVvHlzNW/eXOHh4VqxYoXGjx9vsjTA59ixAyhJ0dHRkqSZM2cargSmMAIG7MdoAKxWrZp27NihkSNHqlatWqpVq5ZGjRqlHTt26I477jBZGuBz7NgBlKRHH31UkrR06VIdOnTIcDUwgREwYD9G3ynOnj2r0NBQdevWzWQZgCPYtQNYvnx5NWjQQL/88otmzZqlZ555xnRJ8LLLfTihAwiYY7QDWKJECcXExGjx4sVyu90mSwF8nl0DoHRhDPz5558brgQm0AEE7MdoAPzwww91+vRpPfjggypTpoyeffZZrVmzxmRJgM+y6whYktq3by9JWr58uf7880/D1cDbrhYA6QAC3mc0AD700EP64osvlJiYqBEjRujXX3/VXXfdpUqVKumVV14xWRrgc+zcASxbtqznpNBffPGF4WrgbVcbAdMBBLzPFtcCLlSokDp37qxFixZp06ZNuuGGGzR06FDTZQE+5XIrLe2C1cD+iw4gYD+2CIBnz57V559/rrZt26pOnTo6duyY+vfvb7oswKdc7lxrdvHwww/L5XLpl19+4drAfuZyr00WgQDmGA2ACxcuVExMjMLCwtS9e3eFhYVp0aJF2rt3r0aNGmWyNMDn2HkELEmlSpVS06ZNJTEG9jeX606zCAQwx/gxgGfOnNFHH32khIQEvffee7r77rtNlgT4LDsvAknHGNg/MQIG7MfoO0ViYqIKFSpksgTAMezeAZTOj4F79uyptWvXaufOnbrttttMlwQvuNoImA4g4H1GO4CEPyD3+EIAvPnmm3XvvfdKYgzsT642AqYDCHifLRaBAMg5XxgBSxcuDccY2H9c7sMJi0AAcwiAgEP4QgdQktq1a6egoCBt3LhR27ZtM10OvOByI2AWgQDmEAABh/CVDuCNN96o++67T5I0Y8YMw9XAGxgBA/ZjiwC4c+dOLVy4UGfOnJEkWZZluCLAt1iWpbS0NEn27wBKUocOHSRJH330Ef/e/cDVRsB0AAHvMxoAjx49qqioKFWqVEmtWrXSoUOHJEldu3ZV3759TZYG+JSMb6C+EAAfeughFSpUSLt27dKyZctMl4M8drnuNB1AwByjAbBPnz4KCgrSvn37FBoa6tkeHR2tBQsWGKwM8C0Z30DtPgKWpBtuuMGzGGTatGlmi0GeYxEIYD9GA+CiRYs0evRolS1bNtP2ihUrau/evYaqAnyPr3UAJek///mPJOnzzz/XqVOnzBaDPMUiEMB+jAbAlJSUTJ2/dMeOHVNISIiBigDflPEN1Bc6gJLUqFEj3XbbbUpJSdHs2bNNl4M8xCIQwH6MBsAmTZroo48+8nzvcrnkdrs1ZswYNWvWzGBlgG9JfwN1uVwKDAw0XE32uFwuTxeQMbCzsQgEsB+jAXDMmDGaNGmS7r//fqWmpuq5555TtWrV9OOPP2r06NHX/HjvvPOOIiIilD9/fjVo0ECrVq3K1v1mzJghl8ultm3bXvNzAnbgK+cAvFinTp3kcrkUHx+vXbt2mS4HeeRqI2DLsuR2u71eF+DPjAbAatWqafv27WrcuLEefPBBpaSkqF27dlq/fr1uvfXWa3qsmTNnKjY2VkOGDNG6detUs2ZNtWzZUklJSVe83549e9SvXz81adIkJ7sCGOUr5wC8WHh4uKKioiQp0zQAznK5EXDGQMgYGPAu4+cBLFKkiAYPHqzPP/9c8+fP16uvvqpSpUpd8+OMHTtW3bp1U+fOnVW1alVNnDhRoaGhmjp16mXvk5aWpo4dO2ro0KGqUKFCTnYDMMpXO4CS1LlzZ0nShx9+SBfIoS73+swYCBkDA95lvF1w/PhxrVq1SklJSZf88e/UqVO2HiM1NVVr167VoEGDPNsCAgIUFRWllStXXvZ+r7zyikqUKKGuXbtyLjL4NF8OgG3btlXhwoW1Z88eLV26lON/HehqI+CMtwHgHUYD4Ndff62OHTvq1KlTKly4sFwul+dnLpcr2wHwyJEjSktLU1hYWKbtYWFh+v3337O8z/LlyzVlyhRt2LAh2/WeO3dO586d83yfnJyc7fsCeclXR8CSVKBAAf3rX//SpEmTNG3aNAKgA2VnBEwHEPAuoyPgvn37qkuXLjp16pSOHz+uv/76y/N17NixPHvekydP6vHHH9fkyZNVvHjxbN9v5MiRKlKkiOcrPDw8z2oEroUvdwClC2PgWbNm6eTJk4arQW673OszICDA88GfDiDgXUYD4IEDB9SrV68szwV4LYoXL67AwEAlJiZm2p6YmKiSJUtecvs//vhDe/bsUevWrRUUFKSgoCB99NFH+uqrrxQUFKQ//vgjy+cZNGiQTpw44fnav39/juoGcosvdwAlqUGDBqpcubJOnz6tL774wnQ5yGVXen1yNRDADKMBsGXLllqzZk2OHyc4OFh169ZVXFycZ5vb7VZcXJwiIyMvuX2VKlW0efNmbdiwwfPVpk0bNWvWTBs2bLhsZy8kJESFCxfO9AXYga93AF0ul6cLyDkBnedKr0+uBgKYYbRd8MADD6h///769ddfVb169Uv+OLRp0ybbjxUbG6uYmBjVq1dP9evX17hx45SSkuJ5U+nUqZPKlCmjkSNHKn/+/KpWrVqm+xctWlSSLtkO+AJfD4CS9Pjjj+v555/XsmXLtHPnTt12222mS0IuudwiEImrgQCmGA2A3bp1k3R+Ne7FXC6X0tLSsv1Y0dHROnz4sF566SUlJCSoVq1aWrBggWdhyL59+xQQYPysN0Ce8PURsCSVLl1aLVu21HfffadJkyZpzJgxpktCLrncIhCJq4EAphh9t8jtc3717NlTPXv2zPJn8fHxV7wvYyf4Mid0ACWpe/fu+u677zRlyhQNHTpUBQoUMF0SckF2RsB0AAHvoiUGOMCVOiy+pFWrVipfvryOHTummTNnmi4HueRKI2AWgQBmGH+3SElJ0dKlS7Vv3z6lpqZm+lmvXr0MVQX4liu9wfqSwMBAde/eXQMHDtTbb7+tmJiYTOcHhW+60gcUFoEAZhgNgOvXr1erVq10+vRppaSk6MYbb9SRI0cUGhqqEiVKEACBbHLKCFiSunbtqiFDhmjt2rVatWqVGjRoYLok5NCVXp90AAEzjI6A+/Tpo9atW+uvv/5SgQIF9PPPP2vv3r2qW7euXn/9dZOlAT7FCYtA0hUvXlzR0dGSpHfeecdwNcgpt9sty7IkcRoYwE6MBsANGzaob9++CggIUGBgoM6dO6fw8HCNGTNGzz//vMnSAJ/ipA6gJPXo0UOSNHPmTB0+fNhwNciJjMHuSiNgOoCAdxkNgPny5fOcmqVEiRLat2+fJKlIkSJcZQO4Bk5ZBJKufv36qlevnlJTUzVlyhTT5SAHMgbAK42A6QAC3mU0ANauXVurV6+WJDVt2lQvvfSSpk+frmeffZYTMgPXwCmLQDJK7wJOnDjxms4JCnvJ2NmjAwjYh9EAOGLECJUqVUqSNHz4cBUrVkzdu3fX4cOHNWnSJJOlAT7FaSNg6fzJ3W+88Ubt3btX3377relycJ2y2wEkAALeZSwAWpalEiVKeK7VW6JECS1YsEDJyclau3atatasaao0wOc4aRFIugIFCqhr166SWAziy9Jfm4GBgVme0odFIIAZRgPgbbfdxrF+QC5wYgdQOn9lEJfLpUWLFmn79u2my8F1uNrxqYyAATOMBcCAgABVrFhRR48eNVUC4BhODYC33HKLWrVqJUl69913DVeD63G11yaLQAAzjB4DOGrUKPXv319btmwxWQbg85w4Ak6Xfn3vadOm6dSpU4arwbW62gIlOoCAGUYDYKdOnbRq1SrVrFlTBQoU0I033pjpC0D2OLUDKEktWrRQxYoVdeLECb3//vumy8E1utoImEUggBlG2wXjxo0z+fSAYzi5AxgQEKB+/frp//7v/zR27Fj16NHDkUHXqa724YRFIIAZRt8tYmJiTD494BhO7gBK56cFL730kvbv36/PPvtMnTp1Ml0SsokRMGBPRkfAkpSWlqZZs2Zp2LBhGjZsmGbPns0fAuAaOT0A5s+fX88++6wkacyYMXK73WYLQrZldwRMBxDwLqMBcOvWrapUqZJiYmI0d+5czZ07VzExMapYsSILQ4Br4OQRcLqnnnpKhQoV0tatWzV//nzT5SCbsjsC5oM/4F1GA+ATTzyhO+64Q3/++afWrVundevWaf/+/apRo4aefPJJk6UBPsXpHUBJKlq0qJ566ilJ0ujRow1Xg+y62ocTFoEAZhgNgBs2bNDIkSNVrFgxz7ZixYpp+PDhWr9+vcHKAN9ytTGbUzz77LMKDg7W8uXL9dNPP5kuB9nAIhDAnowGwEqVKikxMfGS7UlJSbrtttsMVAT4pqsdaO8UpUuX1uOPPy6JLqCvYBEIYE9eD4DJycmer5EjR6pXr16aNWuW/vzzT/3555+aNWuWnn32Wf64A9fAH0bA6fr37y+Xy6Wvv/5aW7duNV0OroJFIIA9eX1eVLRo0UwXBLcsS48++qhnm2VZkqTWrVsrLS3N2+UBPskfFoGkq1y5stq2bau5c+fqtdde07Rp00yXhCtgEQhgT15/t1iyZIm3nxJwPH/qAErSgAEDNHfuXE2fPl3Dhg1TeHi46ZJwGVcbAbMIBDDD6wGwadOm3n5KwPH8ZRFIugYNGuiee+5RfHy83nzzTY0dO9Z0SbiMq702WQQCmGH83eLs2bPatGmTkpKSLjm5a5s2bQxVBfgWf1kEktGAAQMUHx+v9957TwMGDFBYWJjpkpAFRsCAPRkNgAsWLFCnTp105MiRS37mcrk4BhDIJn8bAUtSy5Ytdeedd2r16tUaNWqU3nzzTdMlIQvZHQHTAQS8y+hpYJ555hm1b99ehw4dktvtzvRF+AOyz58WgaRzuVx69dVXJUkTJkzQn3/+abgiZCW7I2A6gIB3GQ2AiYmJio2NZXQD5JA/dgAl6b777tPdd9+tc+fOafjw4abLQRau9tpkEQhghtEA+Mgjjyg+Pt5kCYAj+GsAdLlcGjZsmCTp/fff1+7duw1XhItl90TQjIAB7zI6L3r77bfVvn17LVu2TNWrV7/kD0SvXr0MVQb4Fn8cAae7++671aJFCy1atEhDhw7lvIA2wwgYsCej7xafffaZFi1apPz58ys+Pj7TCaJdLhcBEMgmf+0Aphs2bJgWLVqkjz/+WAMHDlSVKlVMl4T/j0UggD0ZHQEPHjxYQ4cO1YkTJ7Rnzx7t3r3b87Vr1y6TpQE+xd/OA3ix+vXrq02bNnK73Xr55ZdNl4MM6AAC9mQ0AKampio6OloBAUbLAHyeP54H8GLpxwLOnDlTmzZtMlwN0rEIBLAno8krJiZGM2fONFkC4Aj+PgKWpBo1aig6OlqS9NJLLxmuBulYBALYk9F5UVpamsaMGaOFCxeqRo0al/yB4PJOQPb48yKQjF5++WV98cUXmjdvnlatWqX69eubLsnvMQIG7Mnou8XmzZtVu3ZtSdKWLVsy/SzjghAAV0YH8LwqVaro8ccf14cffqiBAwcqLi6OvyWGZXcETAcQ8C6jAXDJkiUmnx5wDH9fBJLR0KFDNWPGDC1ZskRffvmlHnroIdMl+bXsjoDpAALeZYvVFzt37tTChQt15swZSZJlWYYrAnwLi0AuKF++vPr16ydJ6tevn86dO2e4Iv92tQ8ndAABM4wGwKNHj6p58+aqVKmSWrVqpUOHDkmSunbtqr59+5osDfAZlmUxAr7IwIEDVapUKe3atUvjx483XY5fowMI2JPRANinTx/ly5dP+/btU2hoqGd7dHS0FixYYLAywHe43W7PfzMCPq9gwYIaNWqUJOnVV19VYmKi4Yr819U+nBAAATOMBsBFixZp9OjRKlu2bKbtFStW1N69ew1VBfiWjKMzOoAXPPbYY6pfv75OnjypwYMHmy7HbzECBuzJaABMSUnJ1PlLd+zYMYWEhBioCPA9Gd846QBeEBAQoHHjxkmSpk6dqvXr15styE8xAgbsyWgAbNKkiT766CPP9y6XS263W2PGjFGzZs0MVgb4joxvnHQAM4uMjFSHDh1kWZZ69+7NAjMD6AAC9mS0XTBmzBg1b95ca9asUWpqqp577jlt3bpVx44d008//WSyNMBn0AG8slGjRmnu3LlatmyZZs2apfbt25suya9wDCBgT0Y7gNWqVdP27dvVuHFjPfjgg0pJSVG7du20fv163XrrrSZLA3xG+htsYGAgJz3OQnh4uAYMGCBJ6t+/v+d0U/AORsCAPRlvFxQpUoQDtIEc4ByAV9e/f39NmTJFe/fu1ejRo/Xyyy+bLslvMAIG7Ml4ADx79qw2bdqkpKSkTKezkKQ2bdoYqgrwHZwD8OpCQ0P1xhtv6NFHH9WIESP06KOPqmrVqqbL8guMgAF7MhoAFyxYoE6dOunIkSOX/MzlciktLc1AVYBvSX/j5Pi/K3vkkUf0z3/+U9988426deumZcuWKSDAFhdDcrSrdajTt7vdbrndbn4ngJcY/Zf2zDPPqH379jp06JDnH3/6F+EPyB46gNnjcrn07rvvqmDBglqxYoXee+890yX5hauNgDNupwsIeI/RAJiYmKjY2FiFhYWZLAPwaVd7g8UF4eHhGjlypCRpwIABOnDggOGKnC+7HcCMtwWQ94wGwEceeUTx8fEmSwB8HotArk337t1111136eTJk+rRowfnBsxj2T0GMONtAeQ9oy2Dt99+W+3bt9eyZctUvXr1S/5A9OrVy1BlgO9gBHxtAgMDNXnyZNWpU0fz5s3TnDlz9PDDD5suy7EYAQP2ZDQAfvbZZ1q0aJHy58+v+Pj4TOcwc7lcBEAgG1gEcu2qVaumgQMHatiwYerZs6eaN2+uokWLmi7Lka7WoU4/f6VlWXQAAS8yOgIePHiwhg4dqhMnTmjPnj3avXu352vXrl0mSwN8Bh3A6/P888+rcuXKSkhI0HPPPWe6HMfKzjGqnAoG8D6jATA1NVXR0dEs+wdygEUg1yd//vyaPHmyJGny5Mn6/vvvDVfkTNn5gJL+MwIg4D1Gk1dMTIxmzpxpsgTA57EI5Po1adJETz/9tKTzf4+OHj1quCLnyc7rM/3DCyNgwHuMtgzS0tI0ZswYLVy4UDVq1LjkD8TYsWMNVQb4DkbAOfPaa68pLi5O27Zt05NPPqlZs2ZxTeVcxAgYsCejAXDz5s2qXbu2JGnLli2ZfsYfYCB7GAHnTGhoqD799FPdddddmjNnjj744AN16dLFdFmOcS0jYDqAgPcYfcdYsmSJyacHHIERcM7VqVNHw4YN08CBA9WrVy81adJEFStWNF2Wz0u/spOUvREwHUDAe1h9Afg4OoC5o1+/fmratKlSUlL02GOP0Y3KBRkD3ZVenywCAbyPAAj4ODqAuSMwMFAff/yxihYtqlWrVumVV14xXZLPyxjoWAQC2IujAuA777yjiIgI5c+fXw0aNNCqVasue9vJkyerSZMmKlasmIoVK6aoqKgr3h6wKxaB5J7w8HBNnDhRkjRixAgtX77ccEW+LWOgYwQM2ItjAuDMmTMVGxurIUOGaN26dapZs6ZatmyppKSkLG8fHx+vf//731qyZIlWrlyp8PBwtWjRgovDw+cwAs5d0dHR6tSpk9xutx577DFODZMDGQNgdkbAdAAB73FMABw7dqy6deumzp07q2rVqpo4caJCQ0M1derULG8/ffp0Pf3006pVq5aqVKmi999/X263W3FxcV6uHMgZRsC576233lKFChW0d+9edezYUWlpaaZL8knpr82AgIArnvCfDiDgfY4IgKmpqVq7dq2ioqI82wICAhQVFaWVK1dm6zFOnz6tv//+WzfeeONlb3Pu3DklJydn+gJMYwSc+woXLqw5c+aoQIECWrhwoV5++WXTJfmk7HanWQQCeJ8jAuCRI0eUlpamsLCwTNvDwsKUkJCQrccYMGCASpcunSlEXmzkyJEqUqSI5ys8PDxHdQO5If1NkxFw7qpZs6YmTZokSXr11Vc1b948wxX5nux+OGERCOB9jgiAOTVq1CjNmDFDc+fOVf78+S97u0GDBunEiROer/3793uxSiBrdADzzmOPPaZevXpJkjp16qTt27cbrsi3ZPfwBEbAgPc5IgAWL15cgYGBSkxMzLQ9MTFRJUuWvOJ9X3/9dY0aNUqLFi1SjRo1rnjbkJAQFS5cONMXYBqLQPLW66+/rsaNGys5OVkPPfSQTp06Zbokn3GtI2A6gID3OCIABgcHq27dupkWcKQv6IiMjLzs/caMGaNhw4ZpwYIFqlevnjdKBXIdi0DyVr58+fT555+rVKlS+vXXX9W1a1dZlmW6LJ9wrSNgOoCA9zgiAEpSbGysJk+erA8//FC//fabunfvrpSUFHXu3FnS+fHNoEGDPLcfPXq0XnzxRU2dOlURERFKSEhQQkICn+7hcxgB571SpUpp1qxZnjD4+uuvmy7JJ2T3wwkdQMD7HBMAo6Oj9frrr+ull15SrVq1tGHDBi1YsMCzMGTfvn06dOiQ5/YTJkxQamqqHnnkEZUqVcrzxR92+BpGwN7RsGFDjRs3TtL5RWNz5swxW5APyO5rkw4g4H2Oesfo2bOnevbsmeXP4uPjM32/Z8+evC8I8AJGwN7TvXt3bd26Ve+++646duyoH3744YqHmfg7FoEA9uWYDiDgr+gAeo/L5dL48ePVunVrnT17Vq1bt9aOHTtMl2Vb2T08gREw4H0EQMDH0QH0rqCgIH322WeqV6+ejh49qlatWunw4cOmy7IlRsCAfREAAR/HIhDvu+GGG/TNN98oIiJCO3fuVJs2bXTmzBnTZdkOi0AA+yIAAj6OEbAZYWFh+u6771SsWDH9/PPPXDM4C5wGBrAvAiDg4xgBm1OlShXNmzdPwcHBmjt3rnr27Mk5AjNgBAzYFwEQ8HF0AM1q0qSJPv74Y7lcLk2cOFGxsbGEwP+PETBgXwRAwMfRATTv0Ucf1fvvvy9JGjdunAYNGkQIFB1AwM4IgICPYxGIPXTp0kUTJkyQdP5KQy+//LLZgmyA08AA9kUABHwcI2D7eOqppzxXC3nllVc0YsQIswUZxomgAfsiAAI+jhGwvfTu3VujR4+WJA0ePFhvvPGG4YrMYQQM2BcBEPBxjIDt57nnntPQoUMlSf369dOYMWMMV2QGi0AA+yIAAj6OEbA9vfjii3rhhRckSQMGDNBzzz3ndwtDOA8gYF8EQMDHMQK2J5fLpWHDhnm6f6+99pq6devmVyEnux9O6AAC3kcABHwcHUB769+/v6ZMmaKAgABNmTJF0dHROnfunOmyvIJFIIB9EQABH0cH0P66dOmiWbNmKTg4WHPmzNEDDzygkydPmi4rzzECBuyLAAj4OBaB+IaHHnpI8+fPV8GCBRUXF6fmzZsrISHBdFl5ihEwYF8EQMDHMQL2Hc2bN9cPP/ygm266SatXr1b9+vW1YcMG02XlGUbAgH0RAAEfxwjYt9x5551auXKlKleurP3796tRo0aaO3eu6bLyBB1AwL4IgICPowPoeypWrKiff/5Z9913n06fPq127dppxIgRjjtNDMcAAvZFAAR8HB1A31S0aFHNnz9fPXv2lHT+qiGPP/64zp49a7iy3MMIGLAvAiDg41gE4ruCgoL01ltvacKECQoMDNT06dN19913a8+ePaZLyxWMgAH7IgACPo4RsO976qmntHDhQhUrVkyrV69W7dq1NW/ePNNl5RgdQMC+CICAD3O73XK73ZLoAPq65s2ba926dapfv76OHz+utm3bKjY2VqmpqaZLu27Z7U7TAQS8jwAI+LCMHRM6gL4vIiJCy5YtU2xsrCTpzTffVJMmTXx2JJzd7jQdQMD7CICAD8v4hkkH0BmCg4P1xhtv6Msvv1TRokW1atUq1a5dW7NnzzZd2jVjBAzYFwEQ8GEZR2YEQGd58MEHtX79es9I+JFHHlHHjh117Ngx06VlGyNgwL4IgIAPy/iGyQjYedJHwoMGDVJAQIA+/fRT3XHHHfrmm29Ml5YtjIAB+yIAAj4s/Q3T5XIpMDDQcDXIC8HBwRoxYoRWrFihypUrKyEhQa1bt1bnzp11/Phx0+VdUXZHwHQAAe8jAAI+jHMA+o8GDRpo/fr16tu3r1wul6ZNm6bq1avrq6++Ml3aZdEBBOyLAAj4MM4B6F8KFCig119/XT/++KNuvfVW/fnnn3rwwQfVpk0b7d6923R5l6ADCNgXARDwYVwGzj81btxYGzdu1IABAxQUFKSvv/5aVatW1fDhw3Xu3DnT5XlwLWDAvgiAgA+jA+i/brjhBo0aNUobN27UPffco7Nnz+qFF15QjRo19P3335suTxIjYMDOCICAD6MDiKpVq+qHH37Q9OnTFRYWpu3bt+u+++7TP//5T23dutVobYyAAfsiAAI+jEUgkM6vAu/QoYO2bdumXr16KSgoSN9++61q1KihJ554QgcOHDBS17WOgDNe2hBA3iIAAj6METAyKlKkiMaPH6+tW7fq4Ycfltvt1pQpU1SxYkW98MILSk5O9mo92X19ZgyIjIEB7yAAAj6METCyUqlSJc2aNUs//fSTGjZsqDNnzmj48OG65ZZbNHz4cJ04ccIrdVzrpeAy3gdA3iIAAj6MDiCupGHDhlq+fLnmzp2rypUr69ixY3rhhRcUERGhoUOH5vmJpK91BCwRAAFvIQACPowOIK7G5XKpbdu22rJliz755BNVqVJFx48f18svv6zy5cvrxRdf1NGjR/Pkua9nBMxCEMA7CICAD2MRCLIrKChIHTt21JYtWzRz5kxVq1ZNycnJevXVVxUeHq7u3btr27Ztufqc2f2AEhBw4a2IDiDgHQRAwIcxAsa1CgwM1KOPPqqNGzdq9uzZqlOnjs6cOaOJEyeqSpUq+uc//6m4uDhZlpXj58ru69PlcnEqGMDLCICAD2MEjOsVEBCgdu3aac2aNVqyZInatGkjl8ulb7/9VlFRUapVq5YmTZqkkydPXvdzXMvrk5NBA95FAAR8GCNg5JTL5dI999yjefPmadu2berRo4dCQ0O1adMm/d///Z9KlSqlJ598UmvWrLmmx7UsiwAI2BgBEPBhjICRmypWrKi3335bf/75p15//XVVrlxZKSkpmjx5su68807VqVNHEydO1F9//XXVx8oY5LLz+mQEDHgXARDwYYyAkReKFSumvn376rffflN8fLw6dOig4OBgrV+/Xt27d1fJkiXVrl07zZkzR+fOncvyMTIGQDqAgP0QAAEfRgcQecnlcqlp06aaPn26Dh48qLFjx6p69epKTU3V3Llz9fDDD6tkyZJ68sknFR8fr7S0NM99M3byshMA6QAC3kUABHwYHUB4y0033aQ+ffpo06ZN2rhxo5577jmVKVNGx48f1+TJk9WsWTPP8YILFy7U6dOnPffNzgcUOoCAdxEAAR/GIhCYUKNGDY0ePVp79+7VDz/8oC5duqhYsWI6fPiwJk+erH/84x+qWLGipPNdxMDAwKs+JgEQ8C4CIODDGAHDpMDAQDVr1kxTpkxRYmKiFi1apP/7v/9TiRIldOrUKUlSoUKFsvVYjIAB7+JdA/BhjIBhF/ny5dN9992n++67T++8845WrFih+fPn684778zW/ekAAt5FAAR8GB1A2FFgYKCaNGmiJk2aZPs+dAAB72IEDPgwOoBwCjqAgHcRAAEfxiIQOAUBEPAuAiDgwxgBwykYAQPeRQAEfBgjYDgFHUDAuwiAgA+jAwinoAMIeBcBEPBhHAMIp6ADCHgXARDwYYyA4RQEQMC7CICAD2MEDKdgBAx4FwEQ8GF0AOEUdAAB7yIAAj6MYwDhFHQAAe9yVAB85513FBERofz586tBgwZatWrVFW//xRdfqEqVKsqfP7+qV6+u+fPne6lSIHcwAoZT0AEEvMsxAXDmzJmKjY3VkCFDtG7dOtWsWVMtW7ZUUlJSlrdfsWKF/v3vf6tr165av3692rZtq7Zt22rLli1erhy4foyA4RTpAZAOIOAdjgmAY8eOVbdu3dS5c2dVrVpVEydOVGhoqKZOnZrl7cePH69//OMf6t+/v26//XYNGzZMderU0dtvv+3lyoHrRwcQTpH+IYYOIOAdjnjXSE1N1dq1azVo0CDPtoCAAEVFRWnlypVZ3mflypWKjY3NtK1ly5b68ssvL/s8586d07lz5zzfJycn56zwy5gzZ47mzJmTJ48NZ9m0aZMkOoDwfekfYmbPnq0//vjDcDWwk3bt2qldu3amy3AcRwTAI0eOKC0tTWFhYZm2h4WF6ffff8/yPgkJCVnePiEh4bLPM3LkSA0dOjTnBV/F5s2bNX369Dx/HjhHiRIlTJcA5Ej63+OtW7dq69athquBnVSsWJEAmAccEQC9ZdCgQZm6hsnJyQoPD8/152nRooUKFy6c648LZypdurTuuece02UAOfLMM8/o5ptv1qlTp0yXApu56667TJfgSI4IgMWLF1dgYKASExMzbU9MTFTJkiWzvE/JkiWv6faSFBISopCQkJwXfBWRkZGKjIzM8+cBALsoVKiQunXrZroMwG84YhFIcHCw6tatq7i4OM82t9utuLi4ywapyMjITLeXpMWLFxO8AACA4zmiAyhJsbGxiomJUb169VS/fn2NGzdOKSkp6ty5sySpU6dOKlOmjEaOHClJ6t27t5o2bao33nhDDzzwgGbMmKE1a9Zo0qRJJncDAAAgzzkmAEZHR+vw4cN66aWXlJCQoFq1amnBggWeA4v37dungIALDc+GDRvq008/1QsvvKDnn39eFStW1Jdffqlq1aqZ2gUAAACvcFmWZZkuwlclJyerSJEiOnHiBIs2AADwEbx/O+QYQAAAAGQfARAAAMDPEAABAAD8DAEQAADAzxAAAQAA/AwBEAAAwM8QAAEAAPwMARAAAMDPEAABAAD8jGMuBWdC+kVUkpOTDVcCAACyK/19258vhkYAzIGTJ09KksLDww1XAgAArtXJkydVpEgR02UYwbWAc8DtduvgwYMqVKiQXC5Xrj52cnKywsPDtX//fsdep9Af9lFiP52G/XQOf9hHif3MimVZOnnypEqXLq2AAP88Go4OYA4EBASobNmyefochQsXdvQ/WMk/9lFiP52G/XQOf9hHif28mL92/tL5Z+wFAADwYwRAAAAAP0MAtKmQkBANGTJEISEhpkvJM/6wjxL76TTsp3P4wz5K7CeyxiIQAAAAP0MHEAAAwM8QAAEAAPwMARAAAMDPEAABAAD8DAHQht555x1FREQof/78atCggVatWmW6pBz58ccf1bp1a5UuXVoul0tffvllpp9blqWXXnpJpUqVUoECBRQVFaUdO3aYKfY6jRw5UnfeeacKFSqkEiVKqG3bttq2bVum25w9e1Y9evTQTTfdpIIFC+rhhx9WYmKioYqvz4QJE1SjRg3PiVYjIyP13XffeX7uhH3MyqhRo+RyufTss896tjlhX19++WW5XK5MX1WqVPH83An7mO7AgQN67LHHdNNNN6lAgQKqXr261qxZ4/m5E/4ORUREXPL7dLlc6tGjhyRn/D7T0tL04osv6pZbblGBAgV06623atiwYZmu6euE36VXWLCVGTNmWMHBwdbUqVOtrVu3Wt26dbOKFi1qJSYmmi7tus2fP98aPHiwNWfOHEuSNXfu3Ew/HzVqlFWkSBHryy+/tDZu3Gi1adPGuuWWW6wzZ86YKfg6tGzZ0vrggw+sLVu2WBs2bLBatWpllStXzjp16pTnNk899ZQVHh5uxcXFWWvWrLHuuusuq2HDhgarvnZfffWV9e2331rbt2+3tm3bZj3//PNWvnz5rC1btliW5Yx9vNiqVausiIgIq0aNGlbv3r09252wr0OGDLHuuOMO69ChQ56vw4cPe37uhH20LMs6duyYVb58ees///mP9csvv1i7du2yFi5caO3cudNzGyf8HUpKSsr0u1y8eLElyVqyZIllWc74fQ4fPty66aabrG+++cbavXu39cUXX1gFCxa0xo8f77mNE36X3kAAtJn69etbPXr08HyflpZmlS5d2ho5cqTBqnLPxQHQ7XZbJUuWtF577TXPtuPHj1shISHWZ599ZqDC3JGUlGRJspYuXWpZ1vl9ypcvn/XFF194bvPbb79ZkqyVK1eaKjNXFCtWzHr//fcduY8nT560KlasaC1evNhq2rSpJwA6ZV+HDBli1axZM8ufOWUfLcuyBgwYYDVu3PiyP3fq36HevXtbt956q+V2ux3z+3zggQesLl26ZNrWrl07q2PHjpZlOfd3mRcYAdtIamqq1q5dq6ioKM+2gIAARUVFaeXKlQYryzu7d+9WQkJCpn0uUqSIGjRo4NP7fOLECUnSjTfeKElau3at/v7770z7WaVKFZUrV85n9zMtLU0zZsxQSkqKIiMjHbmPPXr00AMPPJBpnyRn/T537Nih0qVLq0KFCurYsaP27dsnyVn7+NVXX6levXpq3769SpQoodq1a2vy5Mmenzvx71Bqaqo++eQTdenSRS6XyzG/z4YNGyouLk7bt2+XJG3cuFHLly/X/fffL8mZv8u8EmS6AFxw5MgRpaWlKSwsLNP2sLAw/f7774aqylsJCQmSlOU+p//M17jdbj377LNq1KiRqlWrJun8fgYHB6to0aKZbuuL+7l582ZFRkbq7NmzKliwoObOnauqVatqw4YNjtlHSZoxY4bWrVun1atXX/Izp/w+GzRooGnTpqly5co6dOiQhg4dqiZNmmjLli2O2UdJ2rVrlyZMmKDY2Fg9//zzWr16tXr16qXg4GDFxMQ48u/Ql19+qePHj+s///mPJOe8ZgcOHKjk5GRVqVJFgYGBSktL0/Dhw9WxY0dJznxPySsEQCCX9ejRQ1u2bNHy5ctNl5InKleurA0bNujEiROaNWuWYmJitHTpUtNl5ar9+/erd+/eWrx4sfLnz2+6nDyT3jWRpBo1aqhBgwYqX768Pv/8cxUoUMBgZbnL7XarXr16GjFihCSpdu3a2rJliyZOnKiYmBjD1eWNKVOm6P7771fp0qVNl5KrPv/8c02fPl2ffvqp7rjjDm3YsEHPPvusSpcu7djfZV5hBGwjxYsXV2Bg4CWrshITE1WyZElDVeWt9P1yyj737NlT33zzjZYsWaKyZct6tpcsWVKpqak6fvx4ptv74n4GBwfrtttuU926dTVy5EjVrFlT48ePd9Q+rl27VklJSapTp46CgoIUFBSkpUuX6r///a+CgoIUFhbmmH3NqGjRoqpUqZJ27tzpqN9nqVKlVLVq1Uzbbr/9ds+422l/h/bu3avvv/9eTzzxhGebU36f/fv318CBA/Wvf/1L1atX1+OPP64+ffpo5MiRkpz3u8xLBEAbCQ4OVt26dRUXF+fZ5na7FRcXp8jISIOV5Z1bbrlFJUuWzLTPycnJ+uWXX3xqny3LUs+ePTV37lz98MMPuuWWWzL9vG7dusqXL1+m/dy2bZv27dvnU/uZFbfbrXPnzjlqH5s3b67Nmzdrw4YNnq969eqpY8eOnv92yr5mdOrUKf3xxx8qVaqUo36fjRo1uuS0TNu3b1f58uUlOefvULoPPvhAJUqU0AMPPODZ5pTf5+nTpxUQkDm6BAYGyu12S3Le7zJPmV6FgsxmzJhhhYSEWNOmTbN+/fVX68knn7SKFi1qJSQkmC7tup08edJav369tX79ekuSNXbsWGv9+vXW3r17Lcs6v2S/aNGi1rx586xNmzZZDz74oM8t2e/evbtVpEgRKz4+PtNpGE6fPu25zVNPPWWVK1fO+uGHH6w1a9ZYkZGRVmRkpMGqr93AgQOtpUuXWrt377Y2bdpkDRw40HK5XNaiRYssy3LGPl5OxlXAluWMfe3bt68VHx9v7d692/rpp5+sqKgoq3jx4lZSUpJlWc7YR8s6fyqfoKAga/jw4daOHTus6dOnW6GhodYnn3ziuY0T/g5Z1vkzR5QrV84aMGDAJT9zwu8zJibGKlOmjOc0MHPmzLGKFy9uPffcc57bOOV3mdcIgDb01ltvWeXKlbOCg4Ot+vXrWz///LPpknJkyZIllqRLvmJiYizLOr9s/8UXX7TCwsKskJAQq3nz5ta2bdvMFn2Nsto/SdYHH3zguc2ZM2esp59+2ipWrJgVGhpqPfTQQ9ahQ4fMFX0dunTpYpUvX94KDg62br75Zqt58+ae8GdZztjHy7k4ADphX6Ojo61SpUpZwcHBVpkyZazo6OhM58Zzwj6m+/rrr61q1apZISEhVpUqVaxJkyZl+rkT/g5ZlmUtXLjQkpRl7U74fSYnJ1u9e/e2ypUrZ+XPn9+qUKGCNXjwYOvcuXOe2zjld5nXXJaV4fTZAAAAcDyOAQQAAPAzBEAAAAA/QwAEAADwMwRAAAAAP0MABAAA8DMEQAAAAD9DAAQAAPAzBEAAAAA/QwAE4DPi4+PlcrkuuaC9t8TFxen2229XWlpanj3HXXfdpdmzZ+fZ4wOAJHElEAC2dM8996hWrVoaN26cZ1tqaqqOHTumsLAwuVwur9dUt25dxcbGqmPHjnn2HN9884369Omjbdu2XXLRewDILfx1AeAzgoODVbJkSSPhb/ny5frjjz/08MMP5+nz3H///Tp58qS+++67PH0eAP6NAAjAdv7zn/9o6dKlGj9+vFwul1wul/bs2XPJCHjatGkqWrSovvnmG1WuXFmhoaF65JFHdPr0aX344YeKiIhQsWLF1KtXr0xj23Pnzqlfv34qU6aMbrjhBjVo0EDx8fFXrGnGjBm67777lD9/fs+2l19+WbVq1dLUqVNVrlw5FSxYUE8//bTS0tI0ZswYlSxZUiVKlNDw4cM997EsSy+//LLKlSunkJAQlS5dWr169fL8PDAwUK1atdKMGTNy5/9MAMhCkOkCAOBi48eP1/bt21WtWjW98sorkqSbb75Ze/bsueS2p0+f1n//+1/NmDFDJ0+eVLt27fTQQw+paNGimj9/vnbt2qWHH35YjRo1UnR0tCSpZ8+e+vXXXzVjxgyVLl1ac+fO1T/+8Q9t3rxZFStWzLKmZcuWqUOHDpds/+OPP/Tdd99pwYIF+uOPP/TII49o165dqlSpkpYuXaoVK1aoS5cuioqKUoMGDTR79my9+eabmjFjhu644w4lJCRo48aNmR6zfv36GjVqVA7/XwSAyyMAArCdIkWKKDg4WKGhoSpZsuQVb/v3339rwoQJuvXWWyVJjzzyiD7++GMlJiaqYMGCqlq1qpo1a6YlS5YoOjpa+/bt0wcffKB9+/apdOnSkqR+/fppwYIF+uCDDzRixIgsn2fv3r2e22fkdrs1depUFSpUyPNc27Zt0/z58xUQEKDKlStr9OjRWrJkiRo0aKB9+/apZMmSioqKUr58+VSuXDnVr18/02OWLl1a+/fvl9vt5jhAAHmCvywAfFpoaKgn/ElSWFiYIiIiVLBgwUzbkpKSJEmbN29WWlqaKlWqpIIFC3q+li5dqj/++OOyz3PmzJlM4990ERERKlSoUKbnqlq1aqbglvH527dvrzNnzqhChQrq1q2b5s6dq//973+ZHrNAgQJyu906d+7cNf6/AQDZQwcQgE/Lly9fpu9dLleW29xutyTp1KlTCgwM1Nq1axUYGJjpdhlD48WKFy+uv/76K8fPHx4erm3btun777/X4sWL9fTTT+u1117T0qVLPfc7duyYbrjhBhUoUOBKuw4A140ACMCWgoOD8+R8e7Vr11ZaWpqSkpLUpEmTa7rfr7/+mis1FChQQK1bt1br1q3Vo0cPValSRZs3b1adOnUkSVu2bFHt2rVz5bkAICsEQAC2FBERoV9++UV79uxRwYIFdeONN+bK41aqVEkdO3ZUp06d9MYbb6h27do6fPiw4uLiVKNGDT3wwANZ3q9ly5b68MMPc/z806ZNU1pamho0aKDQ0FB98sknKlCggMqXL++5zbJly9SiRYscPxcAXA7HAAKwpX79+ikwMFBVq1bVzTffrH379uXaY3/wwQfq1KmT+vbtq8qVK6tt27ZavXq1ypUrd9n7dOzYUVu3btW2bdty9NxFixbV5MmT1ahRI9WoUUPff/+9vv76a910002SpAMHDmjFihXq3Llzjp4HAK6EK4EAQDb1799fycnJeu+99/LsOQYMGKC//vpLkyZNyrPnAAA6gACQTYMHD1b58uU9CzryQokSJTRs2LA8e3wAkOgAAgAA+B06gAAAAH6GAAgAAOBnCIAAAAB+hgAIAADgZwiAAAAAfoYACAAA4GcIgAAAAH6GAAgAAOBnCIAAAAB+5v8Bvkv3znSNHhoAAAAASUVORK5CYII=;imageBorder=default;" vertex="1" parent="1">
          <mxGeometry x="280" y="251.25" width="200" height="150" as="geometry" />
        </mxCell>
        <mxCell id="jdVW5riGTcjkd9gk8ziV-2" value="&lt;font face=&quot;Courier New&quot; style=&quot;font-size: 26px;&quot;&gt;Mod&lt;/font&gt;" style="rounded=0;whiteSpace=wrap;html=1;" vertex="1" parent="1">
          <mxGeometry x="40" y="250" width="170" height="150" as="geometry" />
        </mxCell>
        <mxCell id="jdVW5riGTcjkd9gk8ziV-3" value="&lt;font style=&quot;font-size: 26px;&quot;&gt;EF&lt;/font&gt;" style="rounded=0;whiteSpace=wrap;html=1;" vertex="1" parent="1">
          <mxGeometry x="550" y="260" width="170" height="140" as="geometry" />
        </mxCell>
        <mxCell id="jdVW5riGTcjkd9gk8ziV-4" value="" style="endArrow=none;html=1;rounded=0;" edge="1" parent="1">
          <mxGeometry width="50" height="50" relative="1" as="geometry">
            <mxPoint x="210" y="290" as="sourcePoint" />
            <mxPoint x="280" y="290" as="targetPoint" />
          </mxGeometry>
        </mxCell>
        <mxCell id="jdVW5riGTcjkd9gk8ziV-5" value="" style="endArrow=none;html=1;rounded=0;" edge="1" parent="1">
          <mxGeometry width="50" height="50" relative="1" as="geometry">
            <mxPoint x="210" y="320" as="sourcePoint" />
            <mxPoint x="280" y="320" as="targetPoint" />
          </mxGeometry>
        </mxCell>
        <mxCell id="jdVW5riGTcjkd9gk8ziV-6" value="" style="endArrow=none;html=1;rounded=0;" edge="1" parent="1">
          <mxGeometry width="50" height="50" relative="1" as="geometry">
            <mxPoint x="210" y="350" as="sourcePoint" />
            <mxPoint x="280" y="350" as="targetPoint" />
          </mxGeometry>
        </mxCell>
        <mxCell id="jdVW5riGTcjkd9gk8ziV-7" value="" style="endArrow=none;html=1;rounded=0;" edge="1" parent="1">
          <mxGeometry width="50" height="50" relative="1" as="geometry">
            <mxPoint x="210" y="380" as="sourcePoint" />
            <mxPoint x="280" y="380" as="targetPoint" />
          </mxGeometry>
        </mxCell>
        <mxCell id="jdVW5riGTcjkd9gk8ziV-8" value="" style="endArrow=classic;html=1;rounded=0;" edge="1" parent="1">
          <mxGeometry width="50" height="50" relative="1" as="geometry">
            <mxPoint x="220" y="380" as="sourcePoint" />
            <mxPoint x="220" y="360" as="targetPoint" />
          </mxGeometry>
        </mxCell>
        <mxCell id="jdVW5riGTcjkd9gk8ziV-9" value="" style="endArrow=classic;html=1;rounded=0;" edge="1" parent="1">
          <mxGeometry width="50" height="50" relative="1" as="geometry">
            <mxPoint x="230" y="350" as="sourcePoint" />
            <mxPoint x="230" y="330" as="targetPoint" />
          </mxGeometry>
        </mxCell>
        <mxCell id="jdVW5riGTcjkd9gk8ziV-10" value="" style="endArrow=classic;html=1;rounded=0;" edge="1" parent="1">
          <mxGeometry width="50" height="50" relative="1" as="geometry">
            <mxPoint x="220" y="290" as="sourcePoint" />
            <mxPoint x="220" y="270" as="targetPoint" />
          </mxGeometry>
        </mxCell>
        <mxCell id="jdVW5riGTcjkd9gk8ziV-11" value="" style="endArrow=classic;html=1;rounded=0;" edge="1" parent="1">
          <mxGeometry width="50" height="50" relative="1" as="geometry">
            <mxPoint x="250" y="380" as="sourcePoint" />
            <mxPoint x="250" y="360" as="targetPoint" />
          </mxGeometry>
        </mxCell>
        <mxCell id="jdVW5riGTcjkd9gk8ziV-12" value="" style="endArrow=classic;html=1;rounded=0;" edge="1" parent="1">
          <mxGeometry width="50" height="50" relative="1" as="geometry">
            <mxPoint x="250" y="320" as="sourcePoint" />
            <mxPoint x="250" y="300" as="targetPoint" />
          </mxGeometry>
        </mxCell>
        <mxCell id="jdVW5riGTcjkd9gk8ziV-13" value="" style="endArrow=none;html=1;rounded=0;" edge="1" parent="1">
          <mxGeometry width="50" height="50" relative="1" as="geometry">
            <mxPoint x="480" y="380" as="sourcePoint" />
            <mxPoint x="550.0000000000001" y="380" as="targetPoint" />
          </mxGeometry>
        </mxCell>
        <mxCell id="jdVW5riGTcjkd9gk8ziV-14" value="" style="endArrow=none;html=1;rounded=0;" edge="1" parent="1">
          <mxGeometry width="50" height="50" relative="1" as="geometry">
            <mxPoint x="480" y="350" as="sourcePoint" />
            <mxPoint x="550.0000000000001" y="350" as="targetPoint" />
          </mxGeometry>
        </mxCell>
        <mxCell id="jdVW5riGTcjkd9gk8ziV-15" value="" style="endArrow=none;html=1;rounded=0;" edge="1" parent="1">
          <mxGeometry width="50" height="50" relative="1" as="geometry">
            <mxPoint x="480" y="320" as="sourcePoint" />
            <mxPoint x="550.0000000000001" y="320" as="targetPoint" />
          </mxGeometry>
        </mxCell>
        <mxCell id="jdVW5riGTcjkd9gk8ziV-16" value="" style="endArrow=none;html=1;rounded=0;" edge="1" parent="1">
          <mxGeometry width="50" height="50" relative="1" as="geometry">
            <mxPoint x="480" y="290" as="sourcePoint" />
            <mxPoint x="550.0000000000001" y="290" as="targetPoint" />
          </mxGeometry>
        </mxCell>
        <mxCell id="jdVW5riGTcjkd9gk8ziV-17" value="" style="endArrow=classic;html=1;rounded=0;" edge="1" parent="1">
          <mxGeometry width="50" height="50" relative="1" as="geometry">
            <mxPoint x="490" y="290" as="sourcePoint" />
            <mxPoint x="490" y="270" as="targetPoint" />
          </mxGeometry>
        </mxCell>
        <mxCell id="jdVW5riGTcjkd9gk8ziV-18" value="" style="endArrow=classic;html=1;rounded=0;" edge="1" parent="1">
          <mxGeometry width="50" height="50" relative="1" as="geometry">
            <mxPoint x="520" y="290" as="sourcePoint" />
            <mxPoint x="520" y="270" as="targetPoint" />
          </mxGeometry>
        </mxCell>
        <mxCell id="jdVW5riGTcjkd9gk8ziV-19" value="" style="endArrow=classic;html=1;rounded=0;" edge="1" parent="1">
          <mxGeometry width="50" height="50" relative="1" as="geometry">
            <mxPoint x="520" y="320" as="sourcePoint" />
            <mxPoint x="520" y="300" as="targetPoint" />
          </mxGeometry>
        </mxCell>
        <mxCell id="jdVW5riGTcjkd9gk8ziV-20" value="" style="endArrow=classic;html=1;rounded=0;" edge="1" parent="1">
          <mxGeometry width="50" height="50" relative="1" as="geometry">
            <mxPoint x="510" y="350" as="sourcePoint" />
            <mxPoint x="510" y="330" as="targetPoint" />
          </mxGeometry>
        </mxCell>
        <mxCell id="jdVW5riGTcjkd9gk8ziV-21" value="" style="endArrow=classic;html=1;rounded=0;" edge="1" parent="1">
          <mxGeometry width="50" height="50" relative="1" as="geometry">
            <mxPoint x="530" y="380" as="sourcePoint" />
            <mxPoint x="530" y="360" as="targetPoint" />
          </mxGeometry>
        </mxCell>
      </root>
    </mxGraphModel>
  </diagram>
</mxfile>
